<svg xmlns="http://www.w3.org/2000/svg" width="224" height="75" viewBox="0 0 224 75">
    <g fill="none" fill-rule="nonzero">
        <path fill="#FFCE00" d="M0 75V0h52.49v75H0zm44.803-7.668V7.482H7.498v59.85h37.305z"/>
        <g fill="#000">
            <path d="M81.164 23.679H78.47c-3.645-5.07-7.131-10.14-10.776-15.843v15.843h-3.17V1.657h2.694a448.44 448.44 0 0 1 10.777 15.685V1.657h3.01v22.022h.16zM88.296 14.965a90.42 90.42 0 0 0 2.535-9.03c.951 3.485 1.744 6.02 2.536 9.03h-5.071zm1.426-13.308l-7.607 22.022h3.328l1.902-6.02H94l1.743 6.02h4.28L92.891 1.657h-3.17zM103.51 23.679V4.509h-5.706V1.657h15.373v3.01h-5.864V23.68zM114.286 23.679V1.657h3.804v22.022zM129.817 20.827c-3.962 0-5.388-4.277-5.388-8.555 0-4.12 1.585-7.922 5.388-7.922s5.388 3.961 5.388 7.922c0 4.278-1.426 8.555-5.388 8.555zm0 3.169c5.705 0 9.35-5.07 9.35-11.724 0-6.179-3.962-11.09-9.35-11.09s-9.35 4.911-9.35 11.09c0 6.654 3.486 11.724 9.35 11.724zM158.026 23.679h-2.694c-3.645-5.07-7.132-10.14-10.777-15.843v15.843h-3.01V1.657h2.693a448.44 448.44 0 0 1 10.777 15.685V1.657h3.011v22.022zM165.158 14.965a90.42 90.42 0 0 0 2.535-9.03c.951 3.485 1.743 6.02 2.536 9.03h-5.071zm1.584-13.308l-7.765 22.022h3.328l1.902-6.02h6.656l1.743 6.02h4.279l-6.973-22.022h-3.17zM177.994 1.657h3.804v19.17h7.448v2.852h-11.252V1.657zM78.787 42.057v9.19c-2.06.791-4.12 1.425-6.339 1.425-6.498 0-10.618-5.07-10.618-11.566 0-6.02 4.12-11.248 10.776-11.248 2.06 0 4.12.792 5.389 1.743l-1.268 2.693c-.951-.634-2.536-1.11-3.962-1.11-3.962 0-6.815 3.17-6.815 8.24 0 5.228 3.17 8.396 6.34 8.396.95 0 1.901-.158 2.694-.475v-6.813h3.803v-.475zM92.258 33.026h-6.34v6.02H92.1v3.011h-6.18v7.13h7.448v3.01H82.115V30.175h10.143zM103.985 49.503c-3.962 0-5.388-4.277-5.388-8.555 0-4.12 1.585-7.922 5.388-7.922 3.804 0 5.388 3.961 5.388 7.922 0 4.12-1.426 8.555-5.388 8.555zm0 3.169c5.705 0 9.35-5.07 9.35-11.724 0-6.179-3.962-11.09-9.35-11.09s-9.35 4.911-9.35 11.09c0 6.496 3.645 11.724 9.35 11.724zM131.56 42.057v9.19c-2.06.791-4.12 1.425-6.339 1.425-6.497 0-10.618-5.07-10.618-11.566 0-6.02 4.12-11.248 10.777-11.248 2.06 0 4.12.792 5.388 1.743l-1.268 2.534c-.95-.633-2.536-1.109-3.962-1.109-3.962 0-6.814 3.17-6.814 8.239 0 5.228 3.17 8.397 6.339 8.397.95 0 1.901-.159 2.694-.476v-6.812h3.803v-.317zM138.85 33.026h1.743c2.22 0 3.487 1.268 3.487 3.644 0 3.01-1.743 4.278-3.645 4.436-.317 0-1.268 0-1.585.159v-8.239zm9.509 19.17l-4.437-9.188c2.377-1.268 3.803-3.961 3.803-6.496 0-4.278-2.694-6.337-6.815-6.337h-5.863v22.022h3.803V43.8h1.585l3.645 8.397h4.279zM154.698 43.483a90.42 90.42 0 0 0 2.536-9.03c.95 3.485 1.743 6.02 2.535 9.03h-5.071zm1.426-13.308l-7.607 22.022h3.328l1.902-6.02h6.656l1.743 6.02h4.28l-6.974-22.022h-3.328zM171.338 52.197h-3.803V30.175h5.863c4.28 0 6.815 2.06 6.815 6.337 0 3.802-2.694 7.446-7.29 7.446h-1.743v-2.852c.158 0 1.268 0 1.585-.158 1.743-.158 3.645-1.426 3.645-4.436 0-2.218-1.268-3.644-3.487-3.644h-1.743v19.329h.158zM197.804 52.197h-3.803V41.582h-7.924v10.615h-3.804V30.175h3.804v8.555H194v-8.397h3.803zM201.449 52.197V30.175h3.803v22.022zM222.21 34.135c-.951-.633-2.378-1.267-3.962-1.267-3.804 0-6.656 3.169-6.656 8.238 0 5.229 3.17 8.397 6.814 8.397 1.426 0 2.853-.475 3.804-1.109l1.109 2.694c-1.11.792-3.17 1.584-4.913 1.584-6.497 0-10.618-5.07-10.618-11.566 0-6.02 4.12-11.248 10.618-11.248 1.902 0 3.804.792 5.071 1.743l-1.267 2.534zM71.022 60.594h-4.12v3.96h3.961v1.902h-3.962v4.752h4.913v1.902h-7.29V58.692h6.656v1.902zM81.006 61.227c-.476-.475-1.268-.792-1.902-.792-.95 0-1.585.634-1.585 1.584 0 .951.793 1.743 2.219 3.01 1.585 1.585 2.536 2.694 2.536 4.595 0 1.743-1.427 3.96-4.28 3.96-1.267 0-2.693-.474-3.644-1.425l.95-1.584c.634.633 1.427 1.109 2.536 1.109.951 0 1.902-.634 1.902-2.06 0-1.584-1.585-2.693-2.694-3.485-1.268-1.11-2.219-2.06-2.219-3.961 0-1.901 1.585-3.486 3.804-3.486 1.426 0 2.535.634 3.17 1.268l-.793 1.267zM87.186 73.11h-2.535V58.692h3.803c2.694 0 4.438 1.426 4.438 4.12 0 2.376-1.744 4.753-4.755 4.753h-1.11v-1.743h1.11c1.11 0 2.377-.95 2.377-2.852 0-1.426-.792-2.376-2.218-2.376h-1.11V73.11zM100.499 58.692l4.595 14.418H102.4l-1.109-3.961h-4.279l-1.268 3.96h-2.218l4.912-14.417h2.06zm.317 8.714c-.476-1.901-1.11-3.644-1.585-5.862-.476 2.218-1.11 3.96-1.744 5.862h3.329zM117.931 73.11h-1.743c-2.377-3.327-4.754-6.654-6.973-10.298V73.11h-1.902V58.692h1.585c2.377 3.327 4.754 6.496 6.973 10.298V58.692h1.902V73.11h.158zm-1.585-18.062c-.475 1.11-1.109 1.902-1.901 1.902-.476 0-.951-.317-1.268-.634-.476-.317-.793-.634-1.426-.634-.634 0-.951.634-1.268 1.268l-.951-.634c.634-1.426 1.268-2.218 2.219-2.218.475 0 .95.317 1.426.634.475.316.95.633 1.268.633.475 0 .792-.633 1.109-1.109l.792.792zM126.964 58.692l4.596 14.418h-2.694l-1.11-3.961h-4.278l-1.268 3.96h-2.219l4.913-14.417h2.06zm.317 8.714c-.475-1.901-1.109-3.644-1.584-5.862-.476 2.218-1.11 3.96-1.744 5.862h3.328z"/>
        </g>
    </g>
</svg>
